https://codepen.io/herrberk/pen/yJJgJe




<?xml version="1.0" encoding="utf-8"?>
<!-- Generator: Adobe Illustrator 16.0.0, SVG Export Plug-In . SVG Version: 6.00 Build 0)  -->
<!DOCTYPE svg PUBLIC "-//W3C//DTD SVG 1.1//EN" "http://www.w3.org/Graphics/SVG/1.1/DTD/svg11.dtd">
<svg version="1.1" id="Layer_1" xmlns="http://www.w3.org/2000/svg" xmlns:xlink="http://www.w3.org/1999/xlink" x="0px" y="0px"
	 width="260px" height="55px" viewBox="0 0 260 55" enable-background="new 0 0 260 55" xml:space="preserve">
<g>
	<path fill-rule="evenodd" clip-rule="evenodd" d="M192.05,11.85c0.3,0,0.55,0.083,0.75,0.25c0.2,0.167,0.351,0.433,0.45,0.8
		l0.25-0.85l1.2-0.2L193.1,17.5c0,0.067,0,0.117,0,0.15c0,0.1,0.017,0.167,0.051,0.2c0.033,0.066,0.083,0.1,0.149,0.1
		s0.15-0.05,0.25-0.15c0.2-0.133,0.45-0.417,0.75-0.85l0.25,0.15c-0.333,0.533-0.684,0.933-1.05,1.2c-0.333,0.267-0.65,0.4-0.95,0.4
		c-0.233,0-0.399-0.067-0.5-0.2c-0.1-0.1-0.149-0.25-0.149-0.45c0-0.233,0.05-0.55,0.149-0.95l0.15-0.55
		c-0.634,0.833-1.217,1.417-1.75,1.75c-0.4,0.267-0.783,0.4-1.15,0.4c-0.333,0-0.633-0.15-0.899-0.45S188,17.533,188,17
		c0-0.767,0.233-1.583,0.7-2.45s1.066-1.55,1.8-2.05C191.033,12.067,191.55,11.85,192.05,11.85z M192.1,12.25
		c-0.333,0-0.666,0.15-1,0.45c-0.5,0.4-0.949,1.017-1.35,1.85c-0.4,0.8-0.6,1.534-0.6,2.2c0,0.333,0.083,0.6,0.25,0.8
		c0.166,0.2,0.366,0.3,0.6,0.3c0.533,0,1.116-0.4,1.75-1.2c0.833-1.033,1.25-2.1,1.25-3.2c0-0.434-0.083-0.733-0.25-0.9
		C192.583,12.35,192.366,12.25,192.1,12.25z M199.5,11.85c0.366,0,0.667,0.1,0.9,0.3c0.199,0.167,0.366,0.434,0.5,0.8l0.199-0.85
		l1.15-0.25l-2.4,8.3c-0.1,0.367-0.149,0.617-0.149,0.75c0,0.1,0.033,0.184,0.1,0.25c0.033,0.1,0.101,0.167,0.2,0.2
		c0.167,0.066,0.366,0.1,0.6,0.1l-0.05,0.25h-3.5l0.05-0.25c0.467-0.034,0.767-0.083,0.9-0.15c0.2-0.066,0.35-0.183,0.45-0.35
		c0.133-0.167,0.267-0.517,0.399-1.05l1-3.6c-0.633,0.934-1.233,1.6-1.8,2c-0.399,0.267-0.767,0.4-1.1,0.4
		c-0.467,0-0.834-0.2-1.101-0.6c-0.233-0.4-0.35-0.833-0.35-1.3c0-0.733,0.217-1.517,0.65-2.35c0.466-0.8,1.066-1.45,1.8-1.95
		C198.517,12.067,199.033,11.85,199.5,11.85z M189.1,8.1l0.2,0.25c-0.899,0.667-1.649,1.417-2.25,2.25
		c-0.7,1.033-1.283,2.283-1.75,3.75c-0.434,1.467-0.649,2.8-0.649,4c0,0.9,0.267,1.983,0.8,3.25l-0.25,0.1
		c-0.566-1.1-0.983-2.083-1.25-2.95c-0.167-0.667-0.25-1.333-0.25-2c0-1.567,0.35-2.967,1.05-4.2
		C185.65,11.017,187.1,9.533,189.1,8.1z M197,17.5c0.134,0.2,0.316,0.3,0.55,0.3c0.3,0,0.65-0.167,1.05-0.5
		c0.567-0.5,1.034-1.15,1.4-1.95c0.4-0.8,0.6-1.483,0.6-2.05c0-0.3-0.1-0.55-0.3-0.75c-0.2-0.2-0.434-0.3-0.7-0.3
		c-0.6,0-1.233,0.5-1.899,1.5c-0.634,1.033-0.95,2-0.95,2.9C196.75,17.017,196.833,17.3,197,17.5z M215.75,9.55v3.65h3.65v0.6h-3.65
		v3.65h-0.6V13.8h-3.65v-0.6h3.65V9.55H215.75z M205.1,8.1c0.567,1.1,0.983,2.066,1.25,2.9c0.2,0.667,0.301,1.333,0.301,2
		c0,1.6-0.367,3.017-1.101,4.25c-0.899,1.533-2.35,3.017-4.35,4.45l-0.2-0.2c0.9-0.7,1.65-1.45,2.25-2.25
		c0.7-1.033,1.283-2.283,1.75-3.75c0.434-1.467,0.65-2.8,0.65-4c0-0.933-0.267-2.033-0.801-3.3L205.1,8.1z M233.8,8.75
		c0.101-0.033,0.25-0.167,0.45-0.4h0.25l-0.75,3.2h-0.25l-0.05-0.8c0-0.3-0.05-0.567-0.15-0.8c-0.1-0.233-0.233-0.434-0.399-0.6
		c-0.167-0.167-0.384-0.283-0.65-0.35c-0.267-0.1-0.566-0.15-0.9-0.15c-0.866,0-1.633,0.233-2.3,0.7
		c-0.833,0.6-1.483,1.467-1.95,2.6c-0.399,0.9-0.6,1.833-0.6,2.8c0,0.933,0.283,1.7,0.85,2.3c0.567,0.567,1.301,0.85,2.2,0.85
		c0.667,0,1.267-0.15,1.8-0.45c0.534-0.3,1.034-0.767,1.5-1.4h0.301c-0.534,0.833-1.117,1.467-1.75,1.9
		c-0.667,0.4-1.45,0.6-2.351,0.6c-0.833,0-1.55-0.183-2.149-0.55c-0.634-0.333-1.117-0.8-1.45-1.4c-0.334-0.633-0.5-1.3-0.5-2
		c0-1.066,0.3-2.117,0.899-3.15c0.567-1.033,1.367-1.85,2.4-2.45c1-0.567,2.017-0.85,3.05-0.85c0.467,0,1,0.117,1.601,0.35
		c0.267,0.1,0.466,0.15,0.6,0.15C233.6,8.85,233.7,8.817,233.8,8.75z M239.9,12.05h1.1l-1.25,4.35c-0.2,0.667-0.3,1.083-0.3,1.25
		c0,0.067,0.017,0.133,0.05,0.2c0.033,0.033,0.083,0.05,0.15,0.05c0.066,0,0.149-0.033,0.25-0.1c0.1-0.1,0.35-0.4,0.75-0.9
		l0.25,0.15c-0.4,0.6-0.801,1.05-1.2,1.35c-0.267,0.2-0.533,0.3-0.8,0.3c-0.167,0-0.317-0.067-0.45-0.2
		c-0.101-0.1-0.15-0.233-0.15-0.4c0-0.167,0.033-0.383,0.101-0.65c0.066-0.367,0.283-1.15,0.649-2.35
		c-0.833,1.333-1.517,2.267-2.05,2.8c-0.566,0.533-1.083,0.8-1.55,0.8c-0.233,0-0.434-0.083-0.601-0.25
		c-0.166-0.167-0.25-0.367-0.25-0.6c0-0.367,0.117-0.934,0.351-1.7l0.649-2.25c0.134-0.533,0.2-0.867,0.2-1
		c0-0.066-0.017-0.117-0.05-0.15s-0.083-0.05-0.15-0.05c-0.1,0-0.199,0.033-0.3,0.1c-0.1,0.067-0.333,0.333-0.7,0.8l-0.199-0.15
		c0.366-0.567,0.75-0.983,1.149-1.25c0.3-0.233,0.584-0.35,0.851-0.35c0.199,0,0.35,0.066,0.449,0.2c0.134,0.1,0.2,0.25,0.2,0.45
		c0,0.267-0.1,0.733-0.3,1.4l-0.7,2.35c-0.2,0.667-0.3,1.083-0.3,1.25c0,0.1,0.033,0.167,0.1,0.2c0.067,0.066,0.15,0.1,0.25,0.1
		c0.167,0,0.384-0.083,0.65-0.25c0.233-0.167,0.566-0.517,1-1.05c0.434-0.567,0.8-1.083,1.1-1.55c0.267-0.5,0.567-1.284,0.9-2.35
		L239.9,12.05z M254.5,8.2l0.25-0.1c0.566,1.1,0.983,2.066,1.25,2.9c0.2,0.667,0.3,1.333,0.3,2c0,1.6-0.366,3.017-1.1,4.25
		c-0.9,1.533-2.351,3.017-4.351,4.45l-0.199-0.2c0.899-0.7,1.649-1.45,2.25-2.25c0.699-1.033,1.283-2.283,1.75-3.75
		c0.433-1.467,0.649-2.8,0.649-4C255.3,10.567,255.033,9.467,254.5,8.2z M251.9,11.85l-0.45,2.25h-0.3c0-0.633-0.134-1.1-0.4-1.4
		c-0.233-0.3-0.55-0.45-0.95-0.45c-0.3,0-0.533,0.083-0.7,0.25c-0.199,0.167-0.3,0.367-0.3,0.6c0,0.167,0.05,0.316,0.15,0.45
		c0.066,0.167,0.217,0.367,0.45,0.6c0.633,0.7,1.033,1.233,1.199,1.6c0.2,0.333,0.301,0.667,0.301,1c0,0.5-0.217,0.95-0.65,1.35
		c-0.4,0.4-0.934,0.6-1.6,0.6c-0.334,0-0.733-0.083-1.2-0.25c-0.167-0.067-0.283-0.1-0.351-0.1c-0.233,0-0.399,0.117-0.5,0.35h-0.3
		l0.45-2.4h0.3c0,0.733,0.15,1.267,0.45,1.6c0.267,0.3,0.65,0.45,1.15,0.45c0.366,0,0.649-0.1,0.85-0.3
		c0.233-0.233,0.35-0.5,0.35-0.8c0-0.2-0.05-0.383-0.149-0.55c-0.134-0.267-0.417-0.667-0.851-1.2c-0.433-0.5-0.716-0.883-0.85-1.15
		c-0.1-0.267-0.15-0.533-0.15-0.8c0-0.466,0.167-0.867,0.5-1.2c0.334-0.333,0.784-0.5,1.351-0.5c0.133,0,0.267,0.017,0.399,0.05
		c0.067,0.033,0.233,0.1,0.5,0.2c0.233,0.066,0.4,0.1,0.5,0.1c0.2,0,0.367-0.117,0.5-0.35H251.9z M247.9,8.1l0.199,0.25
		c-0.899,0.667-1.649,1.417-2.25,2.25c-0.699,1.033-1.283,2.283-1.75,3.75c-0.433,1.467-0.649,2.8-0.649,4
		c0,0.9,0.267,1.983,0.8,3.25L244,21.7c-0.566-1.1-0.983-2.083-1.25-2.95c-0.167-0.667-0.25-1.333-0.25-2
		c0-1.567,0.35-2.967,1.05-4.2C244.45,11.017,245.9,9.533,247.9,8.1z M28.15,12.5c-0.2,0.167-0.3,0.367-0.3,0.6
		c0,0.167,0.05,0.316,0.15,0.45c0.067,0.167,0.217,0.367,0.45,0.6c0.633,0.7,1.033,1.233,1.2,1.6c0.2,0.333,0.3,0.667,0.3,1
		c0,0.5-0.217,0.95-0.65,1.35c-0.4,0.4-0.933,0.6-1.6,0.6c-0.333,0-0.733-0.083-1.2-0.25c-0.167-0.067-0.283-0.1-0.35-0.1
		c-0.233,0-0.4,0.117-0.5,0.35h-0.3l0.45-2.4h0.3c0,0.733,0.15,1.267,0.45,1.6c0.267,0.3,0.65,0.45,1.15,0.45
		c0.367,0,0.65-0.1,0.85-0.3c0.233-0.233,0.35-0.5,0.35-0.8c0-0.2-0.05-0.383-0.15-0.55c-0.133-0.267-0.417-0.667-0.85-1.2
		c-0.433-0.5-0.717-0.883-0.85-1.15c-0.1-0.267-0.15-0.533-0.15-0.8c0-0.466,0.167-0.867,0.5-1.2c0.333-0.333,0.783-0.5,1.35-0.5
		c0.133,0,0.267,0.017,0.4,0.05c0.067,0.033,0.233,0.1,0.5,0.2c0.233,0.066,0.4,0.1,0.5,0.1c0.2,0,0.367-0.117,0.5-0.35h0.3
		L30.5,14.1h-0.3c0-0.633-0.133-1.1-0.4-1.4c-0.233-0.3-0.55-0.45-0.95-0.45C28.55,12.25,28.317,12.333,28.15,12.5z M33.8,8.1
		c0.567,1.1,0.983,2.066,1.25,2.9c0.2,0.667,0.3,1.333,0.3,2c0,1.6-0.367,3.017-1.1,4.25c-0.9,1.533-2.35,3.017-4.35,4.45l-0.2-0.2
		c0.9-0.7,1.65-1.45,2.25-2.25c0.7-1.033,1.283-2.283,1.75-3.75c0.433-1.467,0.65-2.8,0.65-4c0-0.933-0.267-2.033-0.8-3.3L33.8,8.1z
		 M24.9,10.6c-0.7,1.033-1.283,2.283-1.75,3.75c-0.433,1.467-0.65,2.8-0.65,4c0,0.9,0.267,1.983,0.8,3.25l-0.25,0.1
		c-0.566-1.1-0.983-2.083-1.25-2.95c-0.167-0.667-0.25-1.333-0.25-2c0-1.567,0.35-2.967,1.05-4.2c0.9-1.533,2.35-3.017,4.35-4.45
		l0.2,0.25C26.25,9.017,25.5,9.767,24.9,10.6z M19.45,12.1c0.167,0.167,0.25,0.383,0.25,0.65c0,0.3-0.083,0.683-0.25,1.15l-0.9,3.1
		c-0.1,0.367-0.15,0.583-0.15,0.65c0,0.067,0.033,0.133,0.1,0.2c0.033,0.033,0.067,0.05,0.1,0.05c0.066,0,0.133-0.033,0.2-0.1
		c0.267-0.2,0.55-0.517,0.85-0.95L19.9,17c-0.467,0.633-0.9,1.1-1.3,1.4c-0.267,0.2-0.517,0.3-0.75,0.3c-0.2,0-0.35-0.067-0.45-0.2
		c-0.1-0.1-0.15-0.25-0.15-0.45c0-0.233,0.083-0.633,0.25-1.2l0.85-2.95c0.1-0.367,0.15-0.65,0.15-0.85c0-0.1-0.033-0.183-0.1-0.25
		c-0.066-0.033-0.133-0.05-0.2-0.05c-0.167,0-0.333,0.05-0.5,0.15c-0.367,0.233-0.75,0.6-1.15,1.1c-0.4,0.5-0.816,1.15-1.25,1.95
		c-0.2,0.4-0.383,0.85-0.55,1.35l-0.35,1.2h-1.1l1.3-4.6c0.167-0.533,0.25-0.867,0.25-1c0-0.1-0.033-0.183-0.1-0.25
		c-0.1-0.1-0.217-0.15-0.35-0.15c-0.066,0-0.167,0.017-0.3,0.05l-0.3,0.05v-0.25l2.5-0.5l-0.95,3.35c0.9-1.367,1.6-2.267,2.1-2.7
		c0.466-0.433,0.933-0.65,1.4-0.65C19.083,11.85,19.283,11.933,19.45,12.1z M50.95,12.15c-0.4,0.9-0.6,1.833-0.6,2.8
		c0,0.933,0.283,1.7,0.85,2.3c0.566,0.567,1.3,0.85,2.2,0.85c0.667,0,1.267-0.15,1.8-0.45c0.533-0.3,1.033-0.767,1.5-1.4H57
		c-0.533,0.833-1.117,1.467-1.75,1.9c-0.667,0.4-1.45,0.6-2.35,0.6c-0.833,0-1.55-0.183-2.15-0.55c-0.633-0.333-1.117-0.8-1.45-1.4
		c-0.333-0.633-0.5-1.3-0.5-2c0-1.066,0.3-2.117,0.9-3.15c0.566-1.033,1.367-1.85,2.4-2.45c1-0.567,2.017-0.85,3.05-0.85
		c0.467,0,1,0.117,1.6,0.35c0.267,0.1,0.467,0.15,0.6,0.15c0.1,0,0.2-0.033,0.3-0.1c0.1-0.033,0.25-0.167,0.45-0.4h0.25l-0.75,3.2
		h-0.25l-0.05-0.8c0-0.3-0.05-0.567-0.15-0.8c-0.1-0.233-0.233-0.434-0.4-0.6C56.583,9.183,56.367,9.067,56.1,9
		c-0.267-0.1-0.567-0.15-0.9-0.15c-0.867,0-1.633,0.233-2.3,0.7C52.067,10.15,51.417,11.017,50.95,12.15z M58.25,13.45
		c0.367-0.567,0.75-0.983,1.15-1.25c0.3-0.233,0.583-0.35,0.85-0.35c0.2,0,0.35,0.066,0.45,0.2c0.133,0.1,0.2,0.25,0.2,0.45
		c0,0.267-0.1,0.733-0.3,1.4l-0.7,2.35c-0.2,0.667-0.3,1.083-0.3,1.25c0,0.1,0.033,0.167,0.1,0.2c0.066,0.066,0.15,0.1,0.25,0.1
		c0.167,0,0.383-0.083,0.65-0.25c0.233-0.167,0.566-0.517,1-1.05c0.433-0.567,0.8-1.083,1.1-1.55c0.267-0.5,0.566-1.284,0.9-2.35
		l0.15-0.55h1.1L63.6,16.4c-0.2,0.667-0.3,1.083-0.3,1.25c0,0.067,0.017,0.133,0.05,0.2c0.033,0.033,0.083,0.05,0.15,0.05
		s0.15-0.033,0.25-0.1c0.1-0.1,0.35-0.4,0.75-0.9l0.25,0.15c-0.4,0.6-0.8,1.05-1.2,1.35c-0.267,0.2-0.533,0.3-0.8,0.3
		c-0.167,0-0.317-0.067-0.45-0.2c-0.1-0.1-0.15-0.233-0.15-0.4c0-0.167,0.033-0.383,0.1-0.65c0.067-0.367,0.283-1.15,0.65-2.35
		c-0.833,1.333-1.517,2.267-2.05,2.8c-0.567,0.533-1.083,0.8-1.55,0.8c-0.233,0-0.433-0.083-0.6-0.25
		c-0.167-0.167-0.25-0.367-0.25-0.6c0-0.367,0.117-0.934,0.35-1.7l0.65-2.25c0.133-0.533,0.2-0.867,0.2-1
		c0-0.066-0.017-0.117-0.05-0.15s-0.083-0.05-0.15-0.05c-0.1,0-0.2,0.033-0.3,0.1c-0.1,0.067-0.333,0.333-0.7,0.8L58.25,13.45z
		 M69.7,9.5c-0.133,0.367-0.4,0.783-0.8,1.25c-0.633,0.7-1.467,1.5-2.5,2.4H68c0.267,0,0.483-0.05,0.65-0.15
		c0.167-0.1,0.283-0.25,0.35-0.45h0.2l-0.55,1.3h-3.2v-0.2c1.633-1.433,2.716-2.55,3.25-3.35c0.233-0.367,0.35-0.767,0.35-1.2
		c0-0.333-0.1-0.6-0.3-0.8c-0.2-0.2-0.467-0.3-0.8-0.3c-0.434,0-0.8,0.217-1.1,0.65l-0.15-0.1c0.167-0.4,0.4-0.716,0.7-0.95
		c0.333-0.233,0.667-0.35,1-0.35c0.434,0,0.783,0.15,1.05,0.45c0.267,0.267,0.4,0.6,0.4,1C69.85,8.967,69.8,9.233,69.7,9.5z
		 M71.1,10.4h2.35V8.05h0.4v2.35h2.4v0.4h-2.4v2.4h-0.4v-2.4H71.1V10.4z M92.2,12.25c-0.333,0-0.667,0.15-1,0.45
		c-0.5,0.4-0.95,1.017-1.35,1.85c-0.4,0.8-0.6,1.534-0.6,2.2c0,0.333,0.083,0.6,0.25,0.8c0.167,0.2,0.367,0.3,0.6,0.3
		c0.533,0,1.117-0.4,1.75-1.2c0.833-1.033,1.25-2.1,1.25-3.2c0-0.434-0.083-0.733-0.25-0.9C92.683,12.35,92.467,12.25,92.2,12.25z
		 M94.8,11.85l-1.6,5.65c0,0.067,0,0.117,0,0.15c0,0.1,0.017,0.167,0.05,0.2c0.033,0.066,0.083,0.1,0.15,0.1
		c0.067,0,0.15-0.05,0.25-0.15c0.2-0.133,0.45-0.417,0.75-0.85l0.25,0.15c-0.333,0.533-0.683,0.933-1.05,1.2
		c-0.333,0.267-0.65,0.4-0.95,0.4c-0.233,0-0.4-0.067-0.5-0.2c-0.1-0.1-0.15-0.25-0.15-0.45c0-0.233,0.05-0.55,0.15-0.95l0.15-0.55
		c-0.633,0.833-1.216,1.417-1.75,1.75c-0.4,0.267-0.783,0.4-1.15,0.4c-0.333,0-0.633-0.15-0.9-0.45s-0.4-0.717-0.4-1.25
		c0-0.767,0.233-1.583,0.7-2.45c0.467-0.867,1.067-1.55,1.8-2.05c0.533-0.433,1.05-0.65,1.55-0.65c0.3,0,0.55,0.083,0.75,0.25
		c0.2,0.167,0.35,0.433,0.45,0.8l0.25-0.85L94.8,11.85z M89.4,8.35c-0.9,0.667-1.65,1.417-2.25,2.25
		c-0.7,1.033-1.283,2.283-1.75,3.75c-0.433,1.467-0.65,2.8-0.65,4c0,0.9,0.267,1.983,0.8,3.25l-0.25,0.1
		c-0.566-1.1-0.983-2.083-1.25-2.95c-0.167-0.667-0.25-1.333-0.25-2c0-1.567,0.35-2.967,1.05-4.2c0.9-1.533,2.35-3.017,4.35-4.45
		L89.4,8.35z M95.6,16.8c0-0.733,0.217-1.517,0.65-2.35c0.467-0.8,1.067-1.45,1.8-1.95c0.567-0.433,1.083-0.65,1.55-0.65
		c0.367,0,0.667,0.1,0.9,0.3c0.2,0.167,0.367,0.434,0.5,0.8l0.2-0.85l1.15-0.25l-2.4,8.3c-0.1,0.367-0.15,0.617-0.15,0.75
		c0,0.1,0.034,0.184,0.1,0.25c0.033,0.1,0.1,0.167,0.2,0.2c0.167,0.066,0.367,0.1,0.6,0.1l-0.05,0.25h-3.5l0.05-0.25
		c0.466-0.034,0.767-0.083,0.9-0.15c0.2-0.066,0.35-0.183,0.45-0.35c0.133-0.167,0.267-0.517,0.4-1.05l1-3.6
		c-0.633,0.934-1.233,1.6-1.8,2c-0.4,0.267-0.767,0.4-1.1,0.4c-0.466,0-0.833-0.2-1.1-0.6C95.717,17.7,95.6,17.267,95.6,16.8z
		 M97.1,17.5c0.133,0.2,0.316,0.3,0.55,0.3c0.3,0,0.65-0.167,1.05-0.5c0.566-0.5,1.033-1.15,1.4-1.95c0.4-0.8,0.6-1.483,0.6-2.05
		c0-0.3-0.1-0.55-0.3-0.75c-0.2-0.2-0.433-0.3-0.7-0.3c-0.6,0-1.233,0.5-1.9,1.5c-0.633,1.033-0.95,2-0.95,2.9
		C96.85,17.017,96.933,17.3,97.1,17.5z M105.2,8.1c0.566,1.1,0.983,2.066,1.25,2.9c0.2,0.667,0.3,1.333,0.3,2
		c0,1.6-0.367,3.017-1.1,4.25c-0.9,1.533-2.35,3.017-4.35,4.45l-0.2-0.2c0.9-0.7,1.65-1.45,2.25-2.25
		c0.7-1.033,1.283-2.283,1.75-3.75c0.433-1.467,0.65-2.8,0.65-4c0-0.933-0.267-2.033-0.8-3.3L105.2,8.1z M152.65,8.55h6.899v0.3
		L152.2,18h1.149c1.233,0,2.101-0.05,2.601-0.15c0.533-0.133,0.967-0.35,1.3-0.65c0.333-0.3,0.616-0.733,0.85-1.3h0.25l-0.85,2.6
		h-7.15v-0.2l7.4-9.2h-2.05c-0.9,0-1.533,0.05-1.9,0.15c-0.366,0.067-0.684,0.217-0.95,0.45c-0.267,0.267-0.483,0.65-0.649,1.15
		h-0.25L152.65,8.55z M159.55,12.35l2.5-0.5l-0.95,3.35c0.9-1.367,1.601-2.267,2.101-2.7c0.467-0.433,0.934-0.65,1.399-0.65
		c0.233,0,0.434,0.083,0.601,0.25c0.166,0.167,0.25,0.383,0.25,0.65c0,0.3-0.084,0.683-0.25,1.15l-0.9,3.1
		c-0.1,0.367-0.149,0.583-0.149,0.65c0,0.067,0.033,0.133,0.1,0.2c0.033,0.033,0.066,0.05,0.1,0.05c0.067,0,0.134-0.033,0.2-0.1
		c0.267-0.2,0.55-0.517,0.851-0.95l0.25,0.15c-0.467,0.633-0.9,1.1-1.301,1.4c-0.267,0.2-0.517,0.3-0.75,0.3
		c-0.199,0-0.35-0.067-0.449-0.2c-0.101-0.1-0.15-0.25-0.15-0.45c0-0.233,0.083-0.633,0.25-1.2l0.85-2.95
		c0.101-0.367,0.15-0.65,0.15-0.85c0-0.1-0.033-0.183-0.1-0.25c-0.067-0.033-0.134-0.05-0.2-0.05c-0.167,0-0.334,0.05-0.5,0.15
		c-0.367,0.233-0.75,0.6-1.15,1.1c-0.399,0.5-0.816,1.15-1.25,1.95c-0.2,0.4-0.383,0.85-0.55,1.35l-0.35,1.2h-1.101l1.3-4.6
		c0.167-0.533,0.25-0.867,0.25-1c0-0.1-0.033-0.183-0.1-0.25c-0.1-0.1-0.217-0.15-0.35-0.15c-0.067,0-0.167,0.017-0.301,0.05
		l-0.3,0.05V12.35z M174.8,8.05v2.35h2.4v0.4h-2.4v2.4H174.4v-2.4h-2.351v-0.4h2.351V8.05H174.8z M170.65,9.5
		c-0.134,0.367-0.4,0.783-0.801,1.25c-0.633,0.7-1.466,1.5-2.5,2.4h1.601c0.267,0,0.483-0.05,0.649-0.15
		c0.167-0.1,0.284-0.25,0.351-0.45h0.2l-0.551,1.3H166.4v-0.2c1.633-1.433,2.716-2.55,3.25-3.35c0.233-0.367,0.35-0.767,0.35-1.2
		c0-0.333-0.1-0.6-0.3-0.8c-0.2-0.2-0.467-0.3-0.8-0.3c-0.434,0-0.801,0.217-1.101,0.65l-0.149-0.1
		c0.166-0.4,0.399-0.716,0.699-0.95c0.334-0.233,0.667-0.35,1-0.35c0.434,0,0.784,0.15,1.051,0.45c0.267,0.267,0.399,0.6,0.399,1
		C170.8,8.967,170.75,9.233,170.65,9.5z M8.05,9.25C7.683,9.317,7.367,9.467,7.1,9.7c-0.267,0.267-0.483,0.65-0.65,1.15H6.2l0.7-2.3
		h6.9v0.3L6.45,18H7.6c1.233,0,2.1-0.05,2.6-0.15c0.533-0.133,0.966-0.35,1.3-0.65c0.333-0.3,0.617-0.733,0.85-1.3h0.25l-0.85,2.6
		H4.6v-0.2L12,9.1H9.95C9.05,9.1,8.417,9.15,8.05,9.25z M15.5,36.35c-0.9,0.667-1.65,1.417-2.25,2.25
		c-0.7,1.034-1.283,2.284-1.75,3.75c-0.433,1.467-0.65,2.801-0.65,4c0,0.9,0.267,1.983,0.8,3.25L11.4,49.7
		c-0.566-1.101-0.983-2.084-1.25-2.95c-0.167-0.667-0.25-1.333-0.25-2c0-1.566,0.35-2.967,1.05-4.2c0.9-1.533,2.35-3.017,4.35-4.45
		L15.5,36.35z M16.85,36.9c-0.133-0.034-0.383-0.051-0.75-0.051l0.05-0.3H20l-0.1,0.3c-0.3,0-0.517,0.034-0.65,0.101
		c-0.233,0.1-0.4,0.233-0.5,0.399c-0.133,0.2-0.283,0.601-0.45,1.2l-1.75,6c-0.133,0.566-0.2,0.917-0.2,1.05
		c0,0.134,0.017,0.233,0.05,0.301c0.067,0.1,0.167,0.166,0.3,0.199c0.133,0.067,0.417,0.117,0.85,0.15l-0.1,0.25H13.4l0.1-0.25
		c0.4-0.033,0.667-0.066,0.8-0.1c0.2-0.101,0.35-0.217,0.45-0.351c0.167-0.233,0.333-0.649,0.5-1.25l1.75-6
		c0.133-0.5,0.2-0.866,0.2-1.1c0-0.134-0.034-0.25-0.1-0.351C17.067,37.033,16.983,36.967,16.85,36.9z M133.7,36.1
		c0.566,1.101,0.983,2.067,1.25,2.9c0.2,0.667,0.3,1.333,0.3,2c0,1.6-0.366,3.017-1.1,4.25c-0.9,1.533-2.351,3.017-4.351,4.45
		l-0.2-0.2c0.9-0.7,1.65-1.45,2.25-2.25c0.7-1.033,1.284-2.283,1.75-3.75c0.434-1.467,0.65-2.8,0.65-4c0-0.934-0.267-2.033-0.8-3.3
		L133.7,36.1z M130.4,35.25l-1.5,5.35c-0.1,0.301-0.15,0.534-0.15,0.7c0,0.101,0.05,0.184,0.15,0.25
		c0.067,0.066,0.25,0.101,0.55,0.101l-0.05,0.199h-2.45L127,41.65c0.267,0,0.45-0.017,0.55-0.051c0.133-0.033,0.233-0.1,0.3-0.199
		c0.1-0.167,0.2-0.434,0.3-0.801l1.1-3.85c0.067-0.233,0.1-0.366,0.1-0.4c0-0.066,0-0.116,0-0.149c0-0.134-0.017-0.233-0.05-0.3
		c-0.066-0.067-0.15-0.101-0.25-0.101c-0.1,0-0.233,0.033-0.4,0.101l-0.05-0.2l1.6-0.45H130.4z M121.85,36.85
		c-0.1-0.1-0.25-0.149-0.45-0.149c-0.1,0-0.267,0.017-0.5,0.05V36.5l2.5-0.4l-2.5,8.7c-0.133,0.434-0.2,0.7-0.2,0.8
		c0,0.067,0.033,0.134,0.1,0.2c0.034,0.033,0.083,0.05,0.15,0.05c0.1,0,0.2-0.033,0.3-0.1c0.267-0.2,0.533-0.517,0.8-0.95l0.25,0.25
		c-0.466,0.634-0.9,1.084-1.3,1.351c-0.3,0.199-0.567,0.3-0.8,0.3c-0.2,0-0.367-0.066-0.5-0.2c-0.1-0.134-0.15-0.283-0.15-0.45
		c0-0.166,0.067-0.533,0.2-1.1l2-6.851c0.167-0.566,0.25-0.883,0.25-0.949C122,37.017,121.95,36.917,121.85,36.85z M125.8,40.05
		h-2.45l0.2-0.649H126L125.8,40.05z M106.15,39.85c0.233,0,0.434,0.084,0.6,0.25c0.167,0.167,0.25,0.367,0.25,0.601
		s-0.05,0.55-0.15,0.95l-0.55,1.85c0.8-1.5,1.567-2.55,2.3-3.15c0.367-0.333,0.75-0.5,1.15-0.5c0.233,0,0.417,0.084,0.55,0.25
		c0.133,0.167,0.2,0.4,0.2,0.7s-0.033,0.601-0.1,0.9l-0.8,2.85c-0.2,0.634-0.3,0.983-0.3,1.05c0,0.067,0.034,0.117,0.1,0.15
		c0.033,0.066,0.067,0.1,0.1,0.1s0.117-0.05,0.25-0.149c0.267-0.233,0.533-0.517,0.8-0.851L110.8,45c-0.133,0.2-0.35,0.467-0.65,0.8
		c-0.333,0.334-0.6,0.566-0.8,0.7c-0.233,0.134-0.434,0.2-0.6,0.2c-0.2,0-0.35-0.066-0.45-0.2c-0.1-0.134-0.15-0.283-0.15-0.45
		c0-0.233,0.1-0.7,0.3-1.399l0.65-2.351c0.133-0.533,0.217-0.833,0.25-0.899c0-0.101,0-0.184,0-0.25c0-0.134-0.017-0.233-0.05-0.301
		c-0.066-0.066-0.133-0.1-0.2-0.1c-0.233,0-0.45,0.1-0.65,0.3c-0.7,0.634-1.333,1.5-1.9,2.601c-0.4,0.733-0.767,1.683-1.1,2.85h-1.1
		l1.25-4.45c0.133-0.467,0.2-0.783,0.2-0.95c0-0.133-0.017-0.233-0.05-0.3c-0.067-0.066-0.133-0.1-0.2-0.1
		c-0.167,0-0.35,0.066-0.55,0.2c-0.267,0.199-0.633,0.6-1.1,1.199c-0.467,0.634-0.833,1.233-1.1,1.801
		c-0.1,0.267-0.383,1.133-0.85,2.6h-1.1l1.55-5.35c0.033-0.101,0.05-0.167,0.05-0.2c0-0.134-0.05-0.233-0.15-0.3
		c-0.1-0.101-0.233-0.15-0.4-0.15c-0.066,0-0.233,0.033-0.5,0.1l-0.05-0.25l2.5-0.5l-0.95,3.301c0.434-0.767,0.8-1.351,1.1-1.75
		c0.467-0.601,0.917-1.034,1.35-1.301C105.617,39.934,105.883,39.85,106.15,39.85z M117.75,40.5c0.433,0.434,0.65,0.983,0.65,1.65
		c0,0.733-0.2,1.466-0.6,2.199c-0.4,0.7-0.933,1.267-1.6,1.7c-0.7,0.434-1.383,0.65-2.05,0.65c-0.667,0-1.2-0.217-1.6-0.65
		c-0.433-0.434-0.65-0.983-0.65-1.649c0-0.733,0.2-1.467,0.6-2.2c0.433-0.7,0.983-1.267,1.65-1.7c0.7-0.434,1.367-0.65,2-0.65
		C116.817,39.85,117.35,40.066,117.75,40.5z M116.85,40.6c-0.233-0.233-0.517-0.35-0.85-0.35c-0.733,0-1.4,0.517-2,1.55
		s-0.9,2.05-0.9,3.05c0,0.467,0.117,0.834,0.35,1.101c0.233,0.233,0.533,0.35,0.9,0.35c0.667,0,1.3-0.5,1.9-1.5
		c0.6-1.033,0.9-2.083,0.9-3.149C117.15,41.217,117.05,40.866,116.85,40.6z M97.4,36.35l-0.75,3.2H96.4l-0.05-0.8
		c0-0.3-0.05-0.566-0.15-0.8c-0.1-0.233-0.233-0.434-0.4-0.601c-0.167-0.166-0.383-0.283-0.65-0.35c-0.267-0.1-0.566-0.15-0.9-0.15
		c-0.867,0-1.633,0.233-2.3,0.7c-0.833,0.601-1.483,1.467-1.95,2.601c-0.4,0.899-0.6,1.833-0.6,2.8c0,0.934,0.283,1.7,0.85,2.3
		c0.567,0.566,1.3,0.85,2.2,0.85c0.667,0,1.267-0.149,1.8-0.449c0.533-0.301,1.033-0.767,1.5-1.4h0.3
		c-0.533,0.833-1.117,1.467-1.75,1.9c-0.667,0.399-1.45,0.6-2.35,0.6c-0.833,0-1.55-0.184-2.15-0.55
		c-0.633-0.334-1.117-0.8-1.45-1.4c-0.333-0.633-0.5-1.3-0.5-2c0-1.066,0.3-2.116,0.9-3.149c0.567-1.034,1.367-1.851,2.4-2.45
		c1-0.566,2.017-0.851,3.05-0.851c0.466,0,1,0.117,1.6,0.351c0.267,0.1,0.467,0.149,0.6,0.149c0.1,0,0.2-0.033,0.3-0.1
		c0.1-0.033,0.25-0.167,0.45-0.4H97.4z M79.95,37.1c-0.3,0.2-0.6,0.65-0.9,1.351c-0.333,0.7-0.633,1.616-0.9,2.75
		c-0.367,1.434-0.55,2.666-0.55,3.7c0,0.5,0.1,0.883,0.3,1.149c0.233,0.233,0.5,0.351,0.8,0.351c0.3,0,0.566-0.101,0.8-0.301
		c0.533-0.533,1-1.433,1.4-2.699c0.667-2.067,1-3.75,1-5.051c0-0.566-0.117-0.966-0.35-1.199c-0.2-0.267-0.45-0.4-0.75-0.4
		C80.5,36.75,80.217,36.866,79.95,37.1z M80.8,36.35c0.6,0,1.117,0.267,1.55,0.801C82.783,37.684,83,38.5,83,39.6
		c0,0.967-0.15,1.967-0.45,3c-0.333,1-0.783,1.867-1.35,2.601c-0.467,0.566-0.95,0.983-1.45,1.25c-0.3,0.166-0.633,0.25-1,0.25
		c-0.633,0-1.167-0.267-1.6-0.8c-0.433-0.534-0.65-1.367-0.65-2.5c0-1.101,0.217-2.217,0.65-3.351c0.5-1.333,1.133-2.333,1.9-3
		C79.583,36.583,80.167,36.35,80.8,36.35z M73.3,36.75c-0.3,0-0.583,0.116-0.85,0.35c-0.3,0.2-0.6,0.65-0.9,1.351
		c-0.333,0.7-0.633,1.616-0.9,2.75c-0.367,1.434-0.55,2.666-0.55,3.7c0,0.5,0.1,0.883,0.3,1.149c0.233,0.233,0.5,0.351,0.8,0.351
		c0.3,0,0.566-0.101,0.8-0.301c0.533-0.533,1-1.433,1.4-2.699c0.667-2.067,1-3.75,1-5.051c0-0.566-0.117-0.966-0.35-1.199
		C73.85,36.884,73.6,36.75,73.3,36.75z M73.3,36.35c0.6,0,1.117,0.267,1.55,0.801c0.433,0.533,0.65,1.35,0.65,2.449
		c0,0.967-0.15,1.967-0.45,3c-0.333,1-0.783,1.867-1.35,2.601c-0.467,0.566-0.95,0.983-1.45,1.25c-0.3,0.166-0.633,0.25-1,0.25
		c-0.633,0-1.167-0.267-1.6-0.8C69.217,45.366,69,44.533,69,43.4c0-1.101,0.217-2.217,0.65-3.351c0.5-1.333,1.133-2.333,1.9-3
		C72.083,36.583,72.667,36.35,73.3,36.35z M67.8,36.55l-0.35,1.25h-3L63.9,39c0.8,0.134,1.417,0.384,1.85,0.75
		c0.7,0.566,1.05,1.366,1.05,2.4c0,0.666-0.133,1.283-0.4,1.85c-0.233,0.533-0.533,0.983-0.9,1.35c-0.367,0.367-0.767,0.667-1.2,0.9
		c-0.566,0.3-1.133,0.45-1.7,0.45c-0.5,0-0.883-0.117-1.15-0.351c-0.2-0.133-0.3-0.316-0.3-0.55c0-0.166,0.067-0.316,0.2-0.45
		c0.1-0.133,0.25-0.199,0.45-0.199c0.267,0,0.55,0.133,0.85,0.399c0.2,0.167,0.367,0.267,0.5,0.3c0.1,0.067,0.217,0.101,0.35,0.101
		c0.567,0,1.083-0.283,1.55-0.851c0.467-0.533,0.7-1.25,0.7-2.149c0-0.601-0.133-1.117-0.4-1.55c-0.233-0.434-0.55-0.733-0.95-0.9
		c-0.367-0.167-0.867-0.283-1.5-0.35l1.55-3.601H67.8z M61,36.35v0.301c-0.833,0.199-1.65,0.616-2.45,1.25
		c-0.8,0.6-1.483,1.399-2.05,2.399c0.5-0.233,0.917-0.35,1.25-0.35c0.633,0,1.167,0.233,1.6,0.7c0.433,0.433,0.65,1.033,0.65,1.8
		c0,1.166-0.367,2.166-1.1,3c-0.767,0.833-1.583,1.25-2.45,1.25c-0.8,0-1.4-0.3-1.8-0.9c-0.4-0.566-0.6-1.233-0.6-2
		c0-1.033,0.233-2.033,0.7-3s1.1-1.8,1.9-2.5c0.767-0.7,1.583-1.217,2.45-1.55C59.6,36.55,60.233,36.417,61,36.35z M50.6,36.75
		c-0.567,0-1.083,0.4-1.55,1.2c-0.5,0.8-0.75,1.767-0.75,2.899c0,0.567,0.15,1,0.45,1.301c0.267,0.3,0.6,0.449,1,0.449
		c0.2,0,0.367-0.017,0.5-0.05c0.167-0.066,0.383-0.2,0.65-0.399c0.667-1.367,1-2.601,1-3.7c0-0.533-0.117-0.95-0.35-1.25
		C51.283,36.9,50.967,36.75,50.6,36.75z M52.35,37.25c0.4,0.566,0.6,1.25,0.6,2.05c0,0.967-0.233,1.934-0.7,2.9
		c-0.433,0.967-1.05,1.8-1.85,2.5c-0.767,0.7-1.583,1.217-2.45,1.55c-0.534,0.2-1.167,0.35-1.9,0.45v-0.25
		c0.5-0.101,0.934-0.267,1.3-0.5c0.667-0.334,1.25-0.767,1.75-1.3c0.533-0.534,1-1.15,1.4-1.851c-0.267,0.134-0.483,0.217-0.65,0.25
		c-0.167,0.066-0.367,0.101-0.6,0.101c-0.733,0-1.283-0.25-1.65-0.75C47.2,41.866,47,41.267,47,40.6c0-1.166,0.383-2.166,1.15-3
		c0.733-0.833,1.533-1.25,2.4-1.25C51.317,36.35,51.917,36.65,52.35,37.25z M41.1,43h-7.9v-0.6h7.9V43z M41.1,40.65h-7.9V40.05h7.9
		V40.65z M57.25,40.45c-0.167,0-0.333,0.033-0.5,0.1s-0.367,0.184-0.6,0.351c-0.7,1.5-1.05,2.75-1.05,3.75
		c0,0.533,0.133,0.949,0.4,1.25c0.267,0.3,0.567,0.449,0.9,0.449c0.567,0,1.083-0.416,1.55-1.25c0.5-0.8,0.75-1.75,0.75-2.85
		c0-0.566-0.15-1-0.45-1.3C57.983,40.616,57.65,40.45,57.25,40.45z M23.75,37.1l-1.2,3.95h1.3c0.6,0,1.05-0.1,1.35-0.3
		c0.267-0.167,0.55-0.55,0.85-1.15h0.3L25.3,43.2H25c0.1-0.267,0.15-0.5,0.15-0.7c0-0.3-0.1-0.533-0.3-0.7
		c-0.2-0.166-0.567-0.25-1.1-0.25H22.4l-0.85,3c-0.167,0.533-0.25,0.884-0.25,1.05c0,0.2,0.067,0.351,0.2,0.45
		c0.133,0.101,0.467,0.167,1,0.2l-0.1,0.25h-3.9l0.1-0.25c0.367-0.033,0.617-0.066,0.75-0.1c0.2-0.101,0.333-0.217,0.4-0.351
		c0.133-0.2,0.3-0.616,0.5-1.25l1.75-6c0.133-0.467,0.2-0.833,0.2-1.1c0-0.134-0.034-0.25-0.1-0.351
		c-0.067-0.1-0.15-0.166-0.25-0.199c-0.133-0.034-0.383-0.051-0.75-0.051l0.05-0.3h7.75l-0.75,2.55h-0.3
		c0.066-0.3,0.1-0.55,0.1-0.75c0-0.333-0.083-0.6-0.25-0.8c-0.2-0.166-0.434-0.3-0.7-0.399c-0.2-0.034-0.633-0.051-1.3-0.051H23.75z
		"/>
	
		<path fill-rule="evenodd" clip-rule="evenodd" fill="none" stroke="#000000" stroke-linecap="round" stroke-linejoin="round" stroke-miterlimit="3" d="
		M37.85,13.45h7.8 M113.05,13.45h30.5l-5-4.8 M138.55,18.45l5-4.6"/>
</g>
</svg>
